<?xml version="1.0" standalone="no"?>
<!DOCTYPE svg PUBLIC "-//W3C//DTD SVG 20010904//EN"
 "http://www.w3.org/TR/2001/REC-SVG-20010904/DTD/svg10.dtd">
<svg version="1.0" xmlns="http://www.w3.org/2000/svg"
 width="1024.000000pt" height="1024.000000pt" viewBox="200 200 600 600"
 preserveAspectRatio="xMidYMid meet">

<g transform="translate(0.000000,1024.000000) scale(0.100000,-0.100000)"
fill="#5389B7" stroke="#2D5277" stroke-width="20">
<path d="M5096 8377 c-36 -141 -69 -224 -161 -407 -167 -329 -372 -614 -914
-1275 -467 -569 -672 -914 -771 -1304 -123 -480 -52 -935 210 -1340 150 -232
334 -408 597 -574 324 -203 675 -297 1109 -297 447 0 872 157 1256 462 269
214 474 525 574 868 124 433 62 906 -181 1367 -127 240 -314 501 -645 898
-333 400 -557 699 -726 970 -150 239 -228 411 -289 632 l-31 111 -28 -111z
m-844 -2621 c35 -62 137 -248 228 -413 l165 -300 131 231 c72 127 177 313 233
414 l103 182 174 0 174 0 0 -785 0 -785 -165 0 -165 0 -2 486 -3 486 -227
-390 c-125 -214 -231 -397 -234 -406 -3 -9 -9 -16 -13 -16 -4 0 -117 185 -252
412 l-244 412 -3 -492 -2 -492 -160 0 -160 0 0 785 0 785 179 0 179 0 64 -114z
m2285 -478 c-3 -643 -3 -633 -61 -752 -36 -73 -81 -123 -150 -168 -89 -57
-167 -78 -295 -78 -173 0 -261 32 -370 134 -53 50 -111 121 -111 137 0 4 57
38 126 75 l127 67 35 -43 c98 -118 276 -118 342 0 l25 45 3 588 3 587 165 0
165 0 -4 -592z"/>
<path d="M6895 3729 c148 -36 371 -128 460 -189 213 -147 203 -325 -28 -482
-559 -380 -1936 -563 -3296 -438 -118 11 -216 18 -218 17 -3 -4 207 -41 352
-61 311 -45 417 -51 915 -51 307 0 547 5 655 13 829 64 1441 214 1785 437 233
151 292 321 162 466 -48 54 -155 124 -248 163 -145 60 -379 119 -514 130 -57
5 -60 4 -25 -5z" fill="#5389B7" opacity="0.6"/>
<path d="M3175 3703 c-11 -2 -78 -15 -150 -29 -450 -86 -687 -270 -594 -461
26 -53 80 -101 168 -147 71 -37 204 -79 286 -90 l50 -7 -57 24 c-158 67 -257
174 -258 278 0 53 53 151 108 200 90 79 244 156 417 210 77 24 94 36 30 22z" fill="#5389B7" opacity="0.5"/>
<path d="M3375 3546 c-137 -49 -204 -86 -266 -146 -272 -263 201 -517 1136
-610 61 -6 270 -14 465 -17 363 -5 632 7 925 41 138 16 466 68 462 73 -2 1
-82 -6 -178 -17 -352 -39 -904 -52 -1244 -30 -525 35 -963 122 -1211 242 -178
86 -240 188 -183 304 23 48 121 144 177 174 55 28 19 23 -83 -14z" fill="#5389B7" opacity="0.4"/>
</g>
</svg>
